<?xml version="1.0" encoding="utf-8"?>
<!-- Generator: Adobe Illustrator 25.0.0, SVG Export Plug-In . SVG Version: 6.00 Build 0)  -->
<svg version="1.1" id="Layer_1" xmlns="http://www.w3.org/2000/svg" xmlns:xlink="http://www.w3.org/1999/xlink" x="0px" y="0px"
	 viewBox="0 0 625.8 144.3" style="enable-background:new 0 0 625.8 144.3;" xml:space="preserve">
<style type="text/css">
	.st0{fill:#1AB362;}
	.st1{fill:#EE2C44;}
	.st2{fill:#FECF08;}
	.st3{fill:none;stroke:#35404D;stroke-miterlimit:10;}
	.st4{fill:none;stroke:#0D1F32;stroke-width:4.2;stroke-miterlimit:10;}
	.st5{fill:#19234F;}
	.st6{fill:none;}
	.st7{font-family:'Gilroy-Regular';}
	.st8{font-size:28px;}
	.st9{letter-spacing:2;}
</style>
<g>
	<polygon class="st0" points="321.7,33.8 317,36.5 317,41 338.1,57.1 338.1,43.3 	"/>
	<path class="st1" d="M305.3,59.3c0,5,2.7,9.7,7.1,12.3l9.4,5.4l4.8-2.8v-4.1L305.3,54V59.3z"/>
	<path class="st2" d="M313.4,38.6l-8.2,4.7v0.4h0v5.9l23.8,18.8l1,3.8l1-0.6c3.7-2.2,6.3-5.9,6.9-10.1l-14.5-11.7L313.4,38.6z"/>
	<path class="st3" d="M304.3,53.6"/>
	<path class="st4" d="M304.3,49.7"/>
	<path class="st5" d="M37.8,48.5c-6-1.6-10.7-2.8-10.7-6.7c0-2.5,1.9-5.2,7.1-5.2c4,0,7.2,1.8,9.5,5.4l14.4-7.8
		C52.8,26.3,44.4,22,34.2,22C21.9,22,9.5,28.3,9.5,42.4c0,13.6,12.2,17,22,19.7c6,1.7,10.8,3,10.8,6.8c0,2.1-1.1,5.6-8.7,5.6
		c-5.7,0-9.9-2.5-12.1-7.2L7,75.6c5,9.1,13.9,13.8,26.7,13.8c12.7,0,26.2-5.4,26.2-20.4C59.9,54.3,47.6,51.1,37.8,48.5z"/>
	<path class="st5" d="M114.3,69.8c-3.2,3-8,4.7-13.1,4.7c-9.1,0-14.9-3.5-17.4-10.3l-0.7-2h48.2c0.4-2.1,0.5-4.3,0.5-6.5
		C131.9,36.5,118,22,99.5,22c-19.7,0-34,14.2-34,33.7c0,19.8,14.6,33.7,35.4,33.7c11.6,0,20.6-4,26.8-11.8L114.3,69.8z M83.4,48.4
		c2.1-7.5,7.7-11.6,16-11.6c7.9,0,13.5,4.2,15.6,11.6l0.5,1.9H82.9L83.4,48.4z"/>
	<path class="st5" d="M173.8,37.4c8,0,13.1,5.4,13.1,13.6v36.5h17V48.1c0-13-7.2-26.1-23.4-26.1c-7.9,0-14.4,2.7-17.9,7.5l-2.7,3.7
		v-9.4h-17v63.7h17V52.6C159.9,42.9,165,37.4,173.8,37.4z"/>
	<path class="st5" d="M248.2,37.4c8,0,13.1,5.4,13.1,13.6v36.5h17V48.1c0-13-7.2-26.1-23.4-26.1c-7.9,0-14.4,2.7-17.9,7.5l-2.7,3.7
		v-9.4h-17v63.7h17V52.6C234.3,42.9,239.4,37.4,248.2,37.4z"/>
	<polygon class="st5" points="406.5,23.9 391.5,69.4 376.6,23.9 357.7,23.9 381.3,87.5 401.8,87.5 425.4,23.9 	"/>
	<path class="st5" d="M457.4,89.4c8,0,14.3-2.6,18.7-7.6l2.6-3v8.8h17V23.9h-17v8.8l-2.6-3c-4.4-5.1-10.7-7.6-18.7-7.6
		c-17,0-30.4,14.8-30.4,33.7C427.1,74.6,440.4,89.4,457.4,89.4z M461.4,37.9c10.4,0,17.4,7.1,17.4,17.8c0,10.6-7,17.8-17.4,17.8
		c-10.4,0-17.4-7.1-17.4-17.8C444.1,45.1,451,37.9,461.4,37.9z"/>
	<path class="st5" d="M521.1,83.2c4.6,4.2,12.6,5.6,25.1,4.5V72.5c-5.7,0.3-9.6-0.1-11.8-2.2c-1.3-1.2-1.9-2.9-1.9-5.1V40.1h13.7
		V23.9h-13.7V5.7l-17,5.1v13.1h-10.7v16.2h10.7v25.1C515.5,74,517.3,79.7,521.1,83.2z"/>
	<path class="st5" d="M601.3,69.8c-3.2,3-8,4.7-13.1,4.7c-9.1,0-14.9-3.5-17.4-10.3l-0.7-2h48.2c0.4-2.1,0.5-4.3,0.5-6.5
		c0-19.2-13.9-33.7-32.4-33.7c-19.7,0-34,14.2-34,33.7c0,19.8,14.6,33.7,35.4,33.7c11.6,0,20.6-4,26.8-11.8L601.3,69.8z M570.4,48.4
		c2.1-7.5,7.7-11.6,16-11.6c7.9,0,13.5,4.2,15.6,11.6l0.5,1.9h-32.6L570.4,48.4z"/>
	<g>
		<path class="st6" d="M314.5,43.6c-0.6-0.5-1-1.3-1-2.1v-1.4c0-0.7-0.8-1.1-1.4-0.8l-6.8,3.9v0.4h0v4.7c0,0.7,0.3,1.4,0.9,1.9
			l23.1,17.5c0.5,0.4,0.8,1,0.8,1.6v2.8l1-0.6c3.4-2,5.9-5.3,6.7-9.1c0.1-0.6-0.1-1.2-0.6-1.6L314.5,43.6z"/>
		<path class="st6" d="M337,42.6l-14.4-8.3c-0.5-0.3-1.2-0.3-1.8,0l-2.8,1.6c-0.6,0.3-0.9,1-0.9,1.6v2.3c0,0.7,0.3,1.4,0.9,1.8
			l19.2,14.6c0.4,0.3,1,0,1-0.5V44.6C338.1,43.8,337.7,43,337,42.6z"/>
		<path class="st6" d="M325.6,69.5l-19.7-15c-0.3-0.2-0.7,0-0.7,0.3v4.4c0,5,2.7,9.7,7.1,12.3l8.8,5.1c0.3,0.2,0.7,0.2,1,0l3.4-1.9
			c0.6-0.3,0.9-0.9,0.9-1.6v-2C326.5,70.6,326.2,69.9,325.6,69.5z"/>
		<path class="st6" d="M321.7,24.4c-17.5,0-31.1,13.6-31.1,31c0,17.4,13.7,31,31.1,31s31.1-13.6,31.1-31
			C352.8,38,339.2,24.4,321.7,24.4z M341.7,59.3c0,6.3-3.4,12.2-8.9,15.4l-10.3,6c-0.5,0.3-1.2,0.3-1.7,0l-10.3-6
			c-5.5-3.2-8.9-9.1-8.9-15.4V42.1c0-0.5,0.3-1,0.7-1.3L321,30c0.4-0.2,0.9-0.2,1.4,0L341,40.8c0.4,0.3,0.7,0.7,0.7,1.2V59.3z"/>
		<path class="st5" d="M341,40.8L322.4,30c-0.4-0.2-0.9-0.2-1.4,0l-18.6,10.7c-0.5,0.3-0.7,0.8-0.7,1.3v17.3
			c0,6.3,3.4,12.2,8.9,15.4l10.3,6c0.5,0.3,1.2,0.3,1.7,0l10.3-6c5.5-3.2,8.9-9,8.9-15.4V42C341.7,41.5,341.5,41.1,341,40.8z
			 M326.5,73.2c0,0.6-0.3,1.2-0.9,1.6l-3.4,1.9c-0.3,0.2-0.7,0.2-1,0l-8.8-5.1c-4.4-2.5-7.1-7.2-7.1-12.3v-4.4
			c0-0.4,0.4-0.6,0.7-0.3l19.7,15c0.5,0.4,0.8,1,0.8,1.7V73.2z M337.8,62.5c-0.9,3.8-3.3,7.1-6.7,9.1l-1,0.6v-2.8
			c0-0.6-0.3-1.2-0.8-1.6l-23.1-17.5c-0.6-0.4-0.9-1.1-0.9-1.9v-4.7h0v-0.4l6.8-3.9c0.6-0.4,1.4,0.1,1.4,0.8v1.4
			c0,0.8,0.4,1.6,1,2.1l22.8,17.3C337.7,61.3,337.9,61.9,337.8,62.5z M338.1,55.9c0,0.5-0.6,0.8-1,0.5l-19.2-14.6
			c-0.6-0.4-0.9-1.1-0.9-1.8v-2.3c0-0.7,0.4-1.3,0.9-1.6l2.8-1.6c0.5-0.3,1.2-0.3,1.8,0l14.4,8.3c0.7,0.4,1.1,1.1,1.1,1.9V55.9z"/>
		<path class="st5" d="M321.7,20.2c-19.6,0-35.3,15.3-35.3,35.2c0,19.9,15.7,35.2,35.3,35.2c19.6,0,35.3-15.3,35.3-35.2
			C357,35.5,341.3,20.2,321.7,20.2z M321.7,86.4c-17.5,0-31.1-13.6-31.1-31c0-17.4,13.7-31,31.1-31s31.1,13.6,31.1,31
			C352.8,72.8,339.2,86.4,321.7,86.4z"/>
	</g>
</g>
</svg>
